<svg width="400" height="400" viewBox="0 0 400 400" fill="none" xmlns="http://www.w3.org/2000/svg">
<g clip-path="url(#clip0_17_311)">
<rect width="400" height="400" fill="white"/>
<path fill-rule="evenodd" clip-rule="evenodd" d="M258 101C262 99.667 266 99.667 270 101C269.333 101 269 101.333 269 102C267 102 265 102 263 102C261.581 101.049 259.915 100.716 258 101Z" fill="#661337"/>
<path fill-rule="evenodd" clip-rule="evenodd" d="M258 101C259.915 100.716 261.581 101.049 263 102C257.397 102.964 252.063 104.798 247 107.5C221.881 122.285 201.715 142.119 186.5 167C183.491 176.863 179.991 186.53 176 196C176.108 196.942 176.441 197.775 177 198.5C186.614 199.074 195.281 196.408 203 190.5C214.257 182.578 224.257 173.245 233 162.5C233.832 161.812 234.498 161.979 235 163C225.681 175.489 214.348 185.656 201 193.5C195.666 196.668 189.999 199.001 184 200.5C180.74 201.284 177.573 201.117 174.5 200C169.112 212.449 162.445 224.115 154.5 235C147.904 243.957 139.237 249.623 128.5 252C120.234 250.4 115.234 245.4 113.5 237C109.878 223.389 112.045 210.889 120 199.5C120.983 198.909 121.65 199.243 122 200.5C115.642 215.669 115.476 230.836 121.5 246C124.838 248.818 128.671 249.651 133 248.5C137.079 246.425 140.579 243.592 143.5 240C155.136 223.394 164.136 205.394 170.5 186C177.649 166.72 183.482 147.054 188 127C187.667 126 187.333 125 187 124C163.541 147.959 139.874 171.793 116 195.5C91.304 218.346 64.304 238.013 35 254.5C33.6667 255.167 32.3333 255.167 31 254.5C72.821 230.373 110.321 200.539 143.5 165C162 145.167 180.5 125.333 199 105.5C199.948 105.017 200.948 104.851 202 105C200.057 119.289 197.224 133.289 193.5 147C206.668 128.5 223.502 114.333 244 104.5C248.507 102.607 253.173 101.441 258 101Z" fill="#661337"/>
<path fill-rule="evenodd" clip-rule="evenodd" d="M269 102C269 101.333 269.333 101 270 101C275.924 103.158 278.59 107.491 278 114C276.62 122.309 274.12 130.309 270.5 138C254.58 166.853 236.914 194.52 217.5 221C216.833 221.667 216.833 222.333 217.5 223C251.249 186.241 287.749 152.741 327 122.5C339.845 113.239 353.512 105.239 368 98.5C375.049 95.437 382.383 94.103 390 94.5C390.951 95.218 391.117 96.051 390.5 97C383.927 102.037 377.094 106.704 370 111C369.667 110.667 369.333 110.333 369 110C369.667 109 370.333 108 371 107C370.167 106.667 369.333 106.333 368.5 106C361.052 108.473 353.885 111.64 347 115.5C290.531 153.617 239.864 198.617 195 250.5C191.57 252.919 187.904 253.419 184 252C192.648 242.03 200.815 231.697 208.5 221C226.288 195.205 243.288 168.871 259.5 142C265.007 132.143 269.34 121.81 272.5 111C273.835 106.892 272.668 103.892 269 102Z" fill="#661337"/>
</g>
<defs>
<clipPath id="clip0_17_311">
<rect width="400" height="400" fill="white"/>
</clipPath>
</defs>
</svg>
