<svg width="390" height="168" viewBox="0 0 390 168" fill="none" xmlns="http://www.w3.org/2000/svg">
<g clip-path="url(#clip0_11_7)">
<path fill-rule="evenodd" clip-rule="evenodd" d="M230 8.5C234 7.167 238 7.167 242 8.5C241.333 8.5 241 8.833 241 9.5C239 9.5 237 9.5 235 9.5C233.581 8.549 231.915 8.216 230 8.5Z" fill="#661337"/>
<path fill-rule="evenodd" clip-rule="evenodd" d="M230 8.5C231.915 8.216 233.581 8.549 235 9.5C229.397 10.464 224.063 12.298 219 15C193.881 29.785 173.715 49.619 158.5 74.5C155.491 84.363 151.991 94.03 148 103.5C148.108 104.442 148.441 105.275 149 106C158.614 106.574 167.281 103.908 175 98C186.257 90.078 196.257 80.745 205 70C205.832 69.312 206.498 69.479 207 70.5C197.681 82.989 186.348 93.156 173 101C167.666 104.168 161.999 106.501 156 108C152.74 108.784 149.573 108.617 146.5 107.5C141.112 119.949 134.445 131.615 126.5 142.5C119.904 151.457 111.237 157.123 100.5 159.5C92.234 157.9 87.234 152.9 85.5 144.5C81.878 130.889 84.045 118.389 92 107C92.983 106.409 93.65 106.743 94 108C87.642 123.169 87.476 138.336 93.5 153.5C96.838 156.318 100.671 157.151 105 156C109.079 153.925 112.579 151.092 115.5 147.5C127.136 130.894 136.136 112.894 142.5 93.5C149.649 74.22 155.482 54.554 160 34.5C159.667 33.5 159.333 32.5 159 31.5C135.541 55.459 111.874 79.293 88 103C63.304 125.846 36.304 145.513 7 162C5.6667 162.667 4.3333 162.667 3 162C44.821 137.873 82.321 108.039 115.5 72.5C134 52.667 152.5 32.833 171 13C171.948 12.517 172.948 12.351 174 12.5C172.057 26.789 169.224 40.789 165.5 54.5C178.668 36 195.502 21.833 216 12C220.507 10.107 225.173 8.941 230 8.5Z" fill="#661337"/>
<path fill-rule="evenodd" clip-rule="evenodd" d="M241 9.5C241 8.833 241.333 8.5 242 8.5C247.924 10.658 250.59 14.991 250 21.5C248.62 29.809 246.12 37.809 242.5 45.5C226.58 74.353 208.914 102.02 189.5 128.5C188.833 129.167 188.833 129.833 189.5 130.5C223.249 93.741 259.749 60.241 299 30C311.845 20.739 325.512 12.739 340 6C347.049 2.937 354.383 1.603 362 2C362.951 2.718 363.117 3.551 362.5 4.5C355.927 9.537 349.094 14.204 342 18.5C341.667 18.167 341.333 17.833 341 17.5C341.667 16.5 342.333 15.5 343 14.5C342.167 14.167 341.333 13.833 340.5 13.5C333.052 15.973 325.885 19.14 319 23C262.531 61.117 211.864 106.117 167 158C163.57 160.419 159.904 160.919 156 159.5C164.648 149.53 172.815 139.197 180.5 128.5C198.288 102.705 215.288 76.371 231.5 49.5C237.007 39.643 241.34 29.31 244.5 18.5C245.835 14.392 244.668 11.392 241 9.5Z" fill="#661337"/>
<path fill-rule="evenodd" clip-rule="evenodd" d="M119 46C118.88 44.914 118.213 44.247 117 44C114.984 44.678 112.984 45.344 111 46C113.262 43.108 116.095 42.108 119.5 43C120.24 44.249 120.073 45.249 119 46Z" fill="white"/>
<path fill-rule="evenodd" clip-rule="evenodd" d="M302 46C301.88 44.914 301.213 44.247 300 44C297.984 44.678 295.984 45.344 294 46C296.262 43.108 299.095 42.108 302.5 43C303.24 44.249 303.073 45.249 302 46Z" fill="white"/>
<path fill-rule="evenodd" clip-rule="evenodd" d="M111 46C110.238 47.762 108.904 48.762 107 49C107.762 47.238 109.096 46.238 111 46Z" fill="white"/>
<path fill-rule="evenodd" clip-rule="evenodd" d="M294 46C293.238 47.762 291.904 48.762 290 49C290.762 47.238 292.096 46.238 294 46Z" fill="white"/>
<path fill-rule="evenodd" clip-rule="evenodd" d="M119 46C117.852 49.661 115.686 52.661 112.5 55C111.833 54.333 111.833 53.667 112.5 53C114.9 50.771 117.067 48.437 119 46Z" fill="white"/>
<path fill-rule="evenodd" clip-rule="evenodd" d="M302 46C300.852 49.661 298.686 52.661 295.5 55C294.833 54.333 294.833 53.667 295.5 53C297.9 50.771 300.067 48.437 302 46Z" fill="white"/>
<path fill-rule="evenodd" clip-rule="evenodd" d="M107 49C104.931 52.073 102.264 54.406 99 56C101.069 52.927 103.736 50.594 107 49Z" fill="white"/>
<path fill-rule="evenodd" clip-rule="evenodd" d="M290 49C287.931 52.073 285.264 54.406 282 56C284.069 52.927 286.736 50.594 290 49Z" fill="white"/>
<path fill-rule="evenodd" clip-rule="evenodd" d="M347 70C351.186 63.302 356.353 57.302 362.5 52C363.167 52.667 363.167 53.333 362.5 54C357.103 59.229 351.936 64.562 347 70Z" fill="white"/>
<path fill-rule="evenodd" clip-rule="evenodd" d="M99 56C94.333 61.333 89.333 66.333 84 71C88 65 93 60 99 56Z" fill="white"/>
<path fill-rule="evenodd" clip-rule="evenodd" d="M98 68C100.686 64.127 104.019 61.294 108 59.5C105.068 62.942 101.735 65.775 98 68Z" fill="white"/>
<path fill-rule="evenodd" clip-rule="evenodd" d="M282 56C277.333 61.333 272.333 66.333 267 71C271 65 276 60 282 56Z" fill="white"/>
<path fill-rule="evenodd" clip-rule="evenodd" d="M281 68C283.686 64.127 287.019 61.294 291 59.5C288.068 62.942 284.735 65.775 281 68Z" fill="white"/>
<path fill-rule="evenodd" clip-rule="evenodd" d="M365 68C369.246 62.543 373.746 57.21 378.5 52C375.224 58.124 370.724 63.457 365 68Z" fill="white"/>
<path fill-rule="evenodd" clip-rule="evenodd" d="M98 68C96.589 70.414 94.589 72.081 92 73C93.411 70.586 95.411 68.919 98 68Z" fill="white"/>
<path fill-rule="evenodd" clip-rule="evenodd" d="M281 68C279.589 70.414 277.589 72.081 275 73C276.411 70.586 278.411 68.919 281 68Z" fill="white"/>
<path fill-rule="evenodd" clip-rule="evenodd" d="M222 73C222.814 71.227 224.148 70.727 226 71.5C224.937 72.688 223.603 73.188 222 73Z" fill="white"/>
<path fill-rule="evenodd" clip-rule="evenodd" d="M365 68C364.989 69.517 364.323 70.684 363 71.5C371.843 71.67 380.51 72.17 389 73C379.605 73.638 370.605 72.971 362 71C362.667 69.667 363.667 68.667 365 68Z" fill="#ABABAB"/>
<path fill-rule="evenodd" clip-rule="evenodd" d="M347 70C347.086 70.996 346.752 71.829 346 72.5C351.614 73.554 356.948 73.054 362 71C370.605 72.971 379.605 73.638 389 73C379.509 73.83 369.842 74.33 360 74.5C359.456 75.217 358.789 75.717 358 76C357.53 74.807 356.53 74.14 355 74C353.774 74.02 352.774 74.353 352 75C348.013 74.51 344.346 75.176 341 77C341 75.667 341 74.333 341 73C343.447 72.885 345.447 71.885 347 70Z" fill="white"/>
<path fill-rule="evenodd" clip-rule="evenodd" d="M49 72C47.698 75.475 45.365 77.642 42 78.5C44.203 76.128 46.537 73.961 49 72Z" fill="white"/>
<path fill-rule="evenodd" clip-rule="evenodd" d="M92 73C90.915 75.087 89.249 76.42 87 77C88.085 74.913 89.751 73.58 92 73Z" fill="white"/>
<path fill-rule="evenodd" clip-rule="evenodd" d="M222 73C220.915 75.087 219.249 76.42 217 77C218.085 74.913 219.751 73.58 222 73Z" fill="white"/>
<path fill-rule="evenodd" clip-rule="evenodd" d="M275 73C273.915 75.087 272.249 76.42 270 77C271.085 74.913 272.751 73.58 275 73Z" fill="white"/>
<path fill-rule="evenodd" clip-rule="evenodd" d="M341 73C341 74.333 341 75.667 341 77C340.081 79.589 338.414 81.589 336 83C336.889 80.764 338.222 78.764 340 77C336.219 76.048 332.386 75.381 328.5 75C324.353 75.906 320.186 76.073 316 75.5C324.225 73.624 332.558 72.79 341 73Z" fill="white"/>
<path fill-rule="evenodd" clip-rule="evenodd" d="M84 71C82.406 74.264 80.073 76.931 77 79C78.594 75.736 80.927 73.069 84 71Z" fill="white"/>
<path fill-rule="evenodd" clip-rule="evenodd" d="M267 71C265.406 74.264 263.073 76.931 260 79C261.594 75.736 263.927 73.069 267 71Z" fill="white"/>
<path fill-rule="evenodd" clip-rule="evenodd" d="M203 81C203.867 77.592 205.033 74.258 206.5 71C206.998 68.018 207.165 65.018 207 62C203.227 61.763 199.56 62.263 196 63.5C191.612 66.023 187.278 68.523 183 71C189.177 64.245 196.844 60.745 206 60.5C208.165 61.661 209.165 63.494 209 66C208.153 71.556 206.153 76.556 203 81Z" fill="white"/>
<path fill-rule="evenodd" clip-rule="evenodd" d="M352 75C352.774 74.353 353.774 74.02 355 74C356.53 74.14 357.53 74.807 358 76C357.081 78.589 355.414 80.589 353 82C353.889 79.764 355.222 77.764 357 76C355.455 75.048 353.788 74.715 352 75Z" fill="white"/>
<path fill-rule="evenodd" clip-rule="evenodd" d="M87 77C86.238 78.762 84.904 79.762 83 80C83.762 78.238 85.096 77.238 87 77Z" fill="white"/>
<path fill-rule="evenodd" clip-rule="evenodd" d="M183 71C180.333 74.333 177.333 77.333 174 80C176 76 179 73 183 71Z" fill="white"/>
<path fill-rule="evenodd" clip-rule="evenodd" d="M270 77C269.238 78.762 267.904 79.762 266 80C266.762 78.238 268.096 77.238 270 77Z" fill="white"/>
<path fill-rule="evenodd" clip-rule="evenodd" d="M77 79C76.42 81.249 75.087 82.915 73 84C73.58 81.751 74.913 80.085 77 79Z" fill="white"/>
<path fill-rule="evenodd" clip-rule="evenodd" d="M83 80C82.238 81.762 80.904 82.762 79 83C79.762 81.238 81.096 80.238 83 80Z" fill="white"/>
<path fill-rule="evenodd" clip-rule="evenodd" d="M260 79C259.42 81.249 258.087 82.915 256 84C256.58 81.751 257.913 80.085 260 79Z" fill="white"/>
<path fill-rule="evenodd" clip-rule="evenodd" d="M266 80C265.238 81.762 263.904 82.762 262 83C262.762 81.238 264.096 80.238 266 80Z" fill="white"/>
<path fill-rule="evenodd" clip-rule="evenodd" d="M57 81C58.188 82.996 57.521 83.829 55 83.5C55.881 82.792 56.547 81.958 57 81Z" fill="white"/>
<path fill-rule="evenodd" clip-rule="evenodd" d="M126 81C127.188 82.996 126.521 83.829 124 83.5C124.881 82.792 125.547 81.958 126 81Z" fill="white"/>
<path fill-rule="evenodd" clip-rule="evenodd" d="M184 85C184.754 83.054 186.088 82.221 188 82.5C187.029 83.981 185.696 84.815 184 85Z" fill="white"/>
<path fill-rule="evenodd" clip-rule="evenodd" d="M353 82C350.812 85.707 348.145 89.04 345 92C346.708 87.928 349.374 84.595 353 82Z" fill="white"/>
<path fill-rule="evenodd" clip-rule="evenodd" d="M79 83C78.238 84.762 76.904 85.762 75 86C75.762 84.238 77.096 83.238 79 83Z" fill="white"/>
<path fill-rule="evenodd" clip-rule="evenodd" d="M203 81C201.758 85.155 199.758 88.822 197 92C198.242 87.845 200.242 84.178 203 81Z" fill="white"/>
<path fill-rule="evenodd" clip-rule="evenodd" d="M262 83C261.238 84.762 259.904 85.762 258 86C258.762 84.238 260.096 83.238 262 83Z" fill="white"/>
<path fill-rule="evenodd" clip-rule="evenodd" d="M174 80C173.486 81.866 172.82 83.7 172 85.5C172.145 86.272 172.478 86.939 173 87.5C176.846 87.611 180.512 86.777 184 85C180.805 88.587 176.805 89.754 172 88.5C170.444 85.108 171.111 82.275 174 80Z" fill="white"/>
<path fill-rule="evenodd" clip-rule="evenodd" d="M215 94C214.97 94.997 215.47 95.664 216.5 96C220.718 94.278 224.552 91.945 228 89C226.455 88.048 224.788 87.715 223 88C223.996 86.835 225.329 86.168 227 86C229.038 87.134 231.038 87.134 233 86C233.333 86.333 233.667 86.667 234 87C232.722 89.222 231.722 91.556 231 94C230.934 95.766 231.768 96.766 233.5 97C236.925 95.518 240.425 94.684 244 94.5C239.711 97.377 235.044 98.377 230 97.5C229.441 96.775 229.108 95.942 229 95C229.862 92.99 230.362 90.99 230.5 89C226.014 92.811 221.014 95.811 215.5 98C212.448 96.921 212.282 95.588 215 94Z" fill="white"/>
<path fill-rule="evenodd" clip-rule="evenodd" d="M282 89C282.131 88.124 281.798 87.457 281 87C280.083 87.627 279.083 87.961 278 88C279.135 86.287 280.802 85.62 283 86C283.237 87.291 282.904 88.291 282 89Z" fill="white"/>
<path fill-rule="evenodd" clip-rule="evenodd" d="M217 92C219.353 91.16 221.353 89.826 223 88C220.302 88.345 218.302 89.678 217 92Z" fill="white"/>
<path fill-rule="evenodd" clip-rule="evenodd" d="M282 89C280.51 90.78 278.51 91.446 276 91C277.051 90.278 277.718 89.278 278 88C279.083 87.961 280.083 87.627 281 87C281.798 87.457 282.131 88.124 282 89Z" fill="white"/>
<path fill-rule="evenodd" clip-rule="evenodd" d="M149 91C149.667 91 150 90.667 150 90C154.411 90.479 158.578 89.812 162.5 88C162.667 88.333 162.833 88.667 163 89C158.543 91.937 153.876 92.603 149 91Z" fill="white"/>
<path fill-rule="evenodd" clip-rule="evenodd" d="M301 92C298.844 94.341 296.344 96.341 293.5 98C293.305 96.293 293.305 94.626 293.5 93C292.489 93.837 291.322 94.17 290 94C295.888 90.293 301.388 85.959 306.5 81C307.167 81.667 307.167 82.333 306.5 83C302.333 85.833 298.833 89.333 296 93.5C297.689 93.366 299.356 92.866 301 92Z" fill="white"/>
<path fill-rule="evenodd" clip-rule="evenodd" d="M304 90C303.527 91.406 302.527 92.073 301 92C301.473 90.594 302.473 89.927 304 90Z" fill="white"/>
<path fill-rule="evenodd" clip-rule="evenodd" d="M215 94C216 93.667 216.667 93 217 92C215.667 92 215 92.667 215 94Z" fill="white"/>
<path fill-rule="evenodd" clip-rule="evenodd" d="M336 83C332.753 88.583 328.753 93.583 324 98C324.203 96.456 324.87 95.122 326 94C325.667 93.667 325.333 93.333 325 93C321.027 95.716 316.694 96.883 312 96.5C311.717 93.363 311.384 90.196 311 87C308.761 88.288 306.428 89.288 304 90C306.6 87.04 309.933 85.706 314 86C313.992 89.045 313.659 92.045 313 95C317.567 94.756 321.901 93.59 326 91.5C329.5 88.831 332.833 85.998 336 83Z" fill="white"/>
<path fill-rule="evenodd" clip-rule="evenodd" d="M345 92C344.42 94.249 343.087 95.915 341 97C341.58 94.751 342.913 93.085 345 92Z" fill="white"/>
<path fill-rule="evenodd" clip-rule="evenodd" d="M278 88C277.718 89.278 277.051 90.278 276 91C274.095 92.549 273.761 94.382 275 96.5C280.104 96.477 285.104 95.643 290 94C285.3 97.588 279.967 98.754 274 97.5C273.391 95.552 272.724 93.718 272 92C273.647 90.174 275.647 88.84 278 88Z" fill="white"/>
<path fill-rule="evenodd" clip-rule="evenodd" d="M49 72C50.474 69.173 50.14 66.673 48 64.5C35.1521 62.782 24.6521 66.949 16.5 77C15.8333 79 15.8333 81 16.5 83C20.0518 86.219 23.8851 89.052 28 91.5C28.7106 92.755 29.544 93.921 30.5 95C38.4724 92.124 46.306 89.291 54 86.5C50.85 89.45 48.85 92.95 48 97C57.956 95.524 66.289 91.191 73 84C73 85.333 73.667 86 75 86C69.209 89.238 66.209 94.238 66 101C76.299 98.852 85.633 94.518 94 88C94.333 88.167 94.667 88.333 95 88.5C91.109 93.393 87.609 98.56 84.5 104C83.751 105.135 83.917 106.135 85 107C92.771 102.75 97.605 96.417 99.5 88C100.764 85.893 102.597 84.893 105 85C105.271 86.88 104.604 88.213 103 89C102.725 86.658 101.892 86.658 100.5 89C99.76 90.249 99.927 91.249 101 92C101.652 93.225 102.819 93.892 104.5 94C111.28 93.359 117.114 90.693 122 86C122.333 86.167 122.667 86.333 123 86.5C119.544 89.254 117.544 92.754 117 97C126.269 95.115 134.769 91.449 142.5 86C144.354 88.511 146.854 89.844 150 90C150 90.667 149.667 91 149 91C146.823 90.914 144.823 90.247 143 89C142.489 91.384 141.489 93.384 140 95C140.514 92.988 140.68 90.988 140.5 89C138.224 90.262 136.391 91.929 135 94C135.131 93.261 134.964 92.594 134.5 92C129.533 95.15 124.2 97.483 118.5 99C115.154 97.622 114.154 95.289 115.5 92C113.852 93.217 112.019 94.05 110 94.5C106.333 94.833 102.667 95.167 99 95.5C95.186 101.836 89.853 106.003 83 108C82.84 106.301 83.006 104.634 83.5 103C85.767 99.799 87.434 96.466 88.5 93C81.673 98.004 74.173 101.17 66 102.5C63.506 99.06 63.84 95.727 67 92.5C61.331 94.736 55.498 96.902 49.5 99C45.13 96.644 44.963 93.811 49 90.5C43.313 91.725 37.6466 93.392 32 95.5C27.9829 103.923 21.4829 106.757 12.5 104C11.8828 103.051 12.0494 102.218 13 101.5C18.2406 99.267 23.2406 96.767 28 94C23.7135 90.887 19.5468 87.554 15.5 84C14.8333 81.333 14.8333 78.667 15.5 76C23.7763 66.243 34.2763 61.743 47 62.5C50.713 64.191 51.879 67.025 50.5 71C50.117 71.556 49.617 71.889 49 72Z" fill="white"/>
<path fill-rule="evenodd" clip-rule="evenodd" d="M103 89C103.073 90.527 102.406 91.527 101 92C100.927 90.473 101.594 89.473 103 89Z" fill="white"/>
<path fill-rule="evenodd" clip-rule="evenodd" d="M217 77C209.536 84.965 201.869 92.798 194 100.5C193.168 101.188 192.502 101.021 192 100C193.191 96.932 194.858 94.265 197 92C196.472 93.347 196.305 94.681 196.5 96C202.923 89.072 209.756 82.738 217 77Z" fill="white"/>
<path fill-rule="evenodd" clip-rule="evenodd" d="M135 94C135 95 135 96 135 97C137.014 97.108 138.68 96.442 140 95C139.642 97.201 138.308 98.535 136 99C133.893 97.587 133.56 95.92 135 94Z" fill="white"/>
<path fill-rule="evenodd" clip-rule="evenodd" d="M341 97C340.762 98.904 339.762 100.238 338 101C338.238 99.096 339.238 97.762 341 97Z" fill="white"/>
<path fill-rule="evenodd" clip-rule="evenodd" d="M324 98C323.762 99.904 322.762 101.238 321 102C321.238 100.096 322.238 98.762 324 98Z" fill="white"/>
<path fill-rule="evenodd" clip-rule="evenodd" d="M256 84C256 85.333 256.667 86 258 86C252.209 89.238 249.209 94.238 249 101C251.027 101.162 253.027 100.995 255 100.5C260.72 97.64 266.386 94.807 272 92C267.226 95.896 261.892 99.063 256 101.5C247.924 104.258 245.59 101.758 249 94C248.124 93.249 247.124 92.749 246 92.5C250.138 90.522 253.471 87.689 256 84Z" fill="white"/>
<path fill-rule="evenodd" clip-rule="evenodd" d="M338 101C335.155 106.027 331.821 110.694 328 115C330.355 109.62 333.688 104.954 338 101Z" fill="white"/>
<path fill-rule="evenodd" clip-rule="evenodd" d="M321 102C316.823 109.025 312.156 115.692 307 122C310.685 114.625 315.351 107.959 321 102Z" fill="white"/>
<path fill-rule="evenodd" clip-rule="evenodd" d="M328 115C328.073 116.527 327.406 117.527 326 118C325.927 116.473 326.594 115.473 328 115Z" fill="white"/>
<path fill-rule="evenodd" clip-rule="evenodd" d="M326 118C326.073 119.527 325.406 120.527 324 121C323.927 119.473 324.594 118.473 326 118Z" fill="white"/>
<path fill-rule="evenodd" clip-rule="evenodd" d="M307 122C307.219 123.175 306.886 124.175 306 125C304.835 123.64 305.168 122.64 307 122Z" fill="white"/>
<path fill-rule="evenodd" clip-rule="evenodd" d="M324 121C323.978 123.3 322.978 124.467 321 124.5C321.663 122.982 322.663 121.815 324 121Z" fill="white"/>
</g>
<defs>
<clipPath id="clip0_11_7">
<rect width="390" height="168" fill="white"/>
</clipPath>
</defs>
</svg>
